<?xml version="1.0" encoding="UTF-8" standalone="no"?>
<!DOCTYPE svg PUBLIC "-//W3C//DTD SVG 1.1//EN"
 "http://www.w3.org/Graphics/SVG/1.1/DTD/svg11.dtd">
<!-- Generated by graphviz version 2.26.3 (20100126.1600)
 -->
<!-- Title: G Pages: 1 -->
<svg width="852pt" height="782pt"
 viewBox="0.00 0.00 852.00 782.00" xmlns="http://www.w3.org/2000/svg" xmlns:xlink="http://www.w3.org/1999/xlink">
<g id="graph1" class="graph" transform="scale(1 1) rotate(0) translate(4 778)">
<title>G</title>
<polygon fill="white" stroke="white" points="-4,5 -4,-778 849,-778 849,5 -4,5"/>
<g id="graph2" class="cluster"><title>cluster_Global</title>
<polyline fill="none" stroke="gray" points="199,-152 824,-152 "/>
<path fill="none" stroke="gray" d="M824,-152C830,-152 836,-158 836,-164"/>
<polyline fill="none" stroke="gray" points="836,-164 836,-754 "/>
<path fill="none" stroke="gray" d="M836,-754C836,-760 830,-766 824,-766"/>
<polyline fill="none" stroke="gray" points="824,-766 199,-766 "/>
<path fill="none" stroke="gray" d="M199,-766C193,-766 187,-760 187,-754"/>
<polyline fill="none" stroke="gray" points="187,-754 187,-164 "/>
<path fill="none" stroke="gray" d="M187,-164C187,-158 193,-152 199,-152"/>
<text text-anchor="middle" x="511.5" y="-752.1" font-family="Times Roman,serif" font-size="11.00" fill="gray">Global</text>
</g>
<g id="graph3" class="cluster"><title>cluster_\WebinoImageThumb</title>
<polyline fill="none" stroke="gray" points="207,-160 816,-160 "/>
<path fill="none" stroke="gray" d="M816,-160C822,-160 828,-166 828,-172"/>
<polyline fill="none" stroke="gray" points="828,-172 828,-724 "/>
<path fill="none" stroke="gray" d="M828,-724C828,-730 822,-736 816,-736"/>
<polyline fill="none" stroke="gray" points="816,-736 207,-736 "/>
<path fill="none" stroke="gray" d="M207,-736C201,-736 195,-730 195,-724"/>
<polyline fill="none" stroke="gray" points="195,-724 195,-172 "/>
<path fill="none" stroke="gray" d="M195,-172C195,-166 201,-160 207,-160"/>
<text text-anchor="middle" x="511.5" y="-722.1" font-family="Times Roman,serif" font-size="11.00" fill="gray">WebinoImageThumb</text>
</g>
<g id="graph4" class="cluster"><title>cluster_\WebinoImageThumb\PhpThumb</title>
<polyline fill="none" stroke="gray" points="652,-404 792,-404 "/>
<path fill="none" stroke="gray" d="M792,-404C798,-404 804,-410 804,-416"/>
<polyline fill="none" stroke="gray" points="804,-416 804,-612 "/>
<path fill="none" stroke="gray" d="M804,-612C804,-618 798,-624 792,-624"/>
<polyline fill="none" stroke="gray" points="792,-624 652,-624 "/>
<path fill="none" stroke="gray" d="M652,-624C646,-624 640,-618 640,-612"/>
<polyline fill="none" stroke="gray" points="640,-612 640,-416 "/>
<path fill="none" stroke="gray" d="M640,-416C640,-410 646,-404 652,-404"/>
<text text-anchor="middle" x="722" y="-610.1" font-family="Times Roman,serif" font-size="11.00" fill="gray">PhpThumb</text>
</g>
<g id="graph5" class="cluster"><title>cluster_\WebinoImageThumb\PhpThumb\Plugin</title>
<polyline fill="none" stroke="gray" points="660,-412 784,-412 "/>
<path fill="none" stroke="gray" d="M784,-412C790,-412 796,-418 796,-424"/>
<polyline fill="none" stroke="gray" points="796,-424 796,-582 "/>
<path fill="none" stroke="gray" d="M796,-582C796,-588 790,-594 784,-594"/>
<polyline fill="none" stroke="gray" points="784,-594 660,-594 "/>
<path fill="none" stroke="gray" d="M660,-594C654,-594 648,-588 648,-582"/>
<polyline fill="none" stroke="gray" points="648,-582 648,-424 "/>
<path fill="none" stroke="gray" d="M648,-424C648,-418 654,-412 660,-412"/>
<text text-anchor="middle" x="722" y="-580.1" font-family="Times Roman,serif" font-size="11.00" fill="gray">Plugin</text>
</g>
<g id="graph6" class="cluster"><title>cluster_\WebinoImageThumb\Exception</title>
<polyline fill="none" stroke="gray" points="215,-632 781,-632 "/>
<path fill="none" stroke="gray" d="M781,-632C787,-632 793,-638 793,-644"/>
<polyline fill="none" stroke="gray" points="793,-644 793,-694 "/>
<path fill="none" stroke="gray" d="M793,-694C793,-700 787,-706 781,-706"/>
<polyline fill="none" stroke="gray" points="781,-706 215,-706 "/>
<path fill="none" stroke="gray" d="M215,-706C209,-706 203,-700 203,-694"/>
<polyline fill="none" stroke="gray" points="203,-694 203,-644 "/>
<path fill="none" stroke="gray" d="M203,-644C203,-638 209,-632 215,-632"/>
<text text-anchor="middle" x="498" y="-692.1" font-family="Times Roman,serif" font-size="11.00" fill="gray">Exception</text>
</g>
<g id="graph7" class="cluster"><title>cluster_\WebinoImageThumb\Service</title>
<polyline fill="none" stroke="gray" points="636,-214 808,-214 "/>
<path fill="none" stroke="gray" d="M808,-214C814,-214 820,-220 820,-226"/>
<polyline fill="none" stroke="gray" points="820,-226 820,-384 "/>
<path fill="none" stroke="gray" d="M820,-384C820,-390 814,-396 808,-396"/>
<polyline fill="none" stroke="gray" points="808,-396 636,-396 "/>
<path fill="none" stroke="gray" d="M636,-396C630,-396 624,-390 624,-384"/>
<polyline fill="none" stroke="gray" points="624,-384 624,-226 "/>
<path fill="none" stroke="gray" d="M624,-226C624,-220 630,-214 636,-214"/>
<text text-anchor="middle" x="722" y="-382.1" font-family="Times Roman,serif" font-size="11.00" fill="gray">Service</text>
</g>
<!-- \\WebinoImageThumb\\PhpThumb\\Plugin\\Watermark -->
<g id="node5" class="node"><title>\\WebinoImageThumb\\PhpThumb\\Plugin\\Watermark</title>
<polygon fill="none" stroke="black" points="760,-564 684,-564 684,-528 760,-528 760,-564"/>
<text text-anchor="middle" x="722" y="-543.1" font-family="Courier,monospace" font-size="11.00">Watermark</text>
</g>
<!-- \\PHPThumb\\PluginInterface -->
<g id="node17" class="node"><title>\\PHPThumb\\PluginInterface</title>
<ellipse fill="none" stroke="black" cx="280" cy="-72" rx="145.163" ry="18.3848"/>
<text text-anchor="middle" x="280" y="-68.4" font-family="Times Roman,serif" font-size="14.00" fill="gray">\PHPThumb\PluginInterface</text>
</g>
<!-- \\WebinoImageThumb\\PhpThumb\\Plugin\\Watermark&#45;&gt;\\PHPThumb\\PluginInterface -->
<g id="edge8" class="edge"><title>\\WebinoImageThumb\\PhpThumb\\Plugin\\Watermark&#45;&gt;\\PHPThumb\\PluginInterface</title>
<path fill="none" stroke="black" stroke-dasharray="1,5" d="M683.28,-545.041C662.743,-542.421 638.772,-535.62 624,-519 498.562,-377.866 697.143,-228.789 560,-99 508.928,-50.6665 426.731,-48.1612 364.577,-55.2226"/>
<polygon fill="none" stroke="black" points="363.886,-51.7814 354.392,-56.4846 364.747,-58.7283 363.886,-51.7814"/>
</g>
<!-- \\WebinoImageThumb\\PhpThumb\\Plugin\\Sharpen -->
<g id="node6" class="node"><title>\\WebinoImageThumb\\PhpThumb\\Plugin\\Sharpen</title>
<polygon fill="none" stroke="black" points="754,-510 690,-510 690,-474 754,-474 754,-510"/>
<text text-anchor="middle" x="722" y="-489.1" font-family="Courier,monospace" font-size="11.00">Sharpen</text>
</g>
<!-- \\WebinoImageThumb\\PhpThumb\\Plugin\\Sharpen&#45;&gt;\\PHPThumb\\PluginInterface -->
<g id="edge10" class="edge"><title>\\WebinoImageThumb\\PhpThumb\\Plugin\\Sharpen&#45;&gt;\\PHPThumb\\PluginInterface</title>
<path fill="none" stroke="black" stroke-dasharray="1,5" d="M689.638,-491.613C667.97,-489.555 640.496,-483.156 624,-465 512.953,-342.779 681.175,-211.188 560,-99 508.826,-51.6214 427.62,-48.6984 365.809,-55.3773"/>
<polygon fill="none" stroke="black" points="365.194,-51.9255 355.674,-56.576 366.016,-58.8771 365.194,-51.9255"/>
</g>
<!-- \\WebinoImageThumb\\PhpThumb\\Plugin\\WhitespaceCropper -->
<g id="node7" class="node"><title>\\WebinoImageThumb\\PhpThumb\\Plugin\\WhitespaceCropper</title>
<polygon fill="none" stroke="black" points="787,-456 657,-456 657,-420 787,-420 787,-456"/>
<text text-anchor="middle" x="722" y="-435.1" font-family="Courier,monospace" font-size="11.00">WhitespaceCropper</text>
</g>
<!-- \\WebinoImageThumb\\PhpThumb\\Plugin\\WhitespaceCropper&#45;&gt;\\PHPThumb\\PluginInterface -->
<g id="edge12" class="edge"><title>\\WebinoImageThumb\\PhpThumb\\Plugin\\WhitespaceCropper&#45;&gt;\\PHPThumb\\PluginInterface</title>
<path fill="none" stroke="black" stroke-dasharray="1,5" d="M656.346,-422.946C644.154,-417.49 632.575,-410.074 624,-400 535.349,-295.853 662.034,-190.075 560,-99 508.663,-53.1764 429.012,-49.6169 367.768,-55.6785"/>
<polygon fill="none" stroke="black" points="367.28,-52.2108 357.719,-56.7746 368.04,-59.1695 367.28,-52.2108"/>
</g>
<!-- \\WebinoImageThumb\\Exception\\RuntimeException -->
<g id="node9" class="node"><title>\\WebinoImageThumb\\Exception\\RuntimeException</title>
<polygon fill="none" stroke="black" points="784,-676 660,-676 660,-640 784,-640 784,-676"/>
<text text-anchor="middle" x="722" y="-655.1" font-family="Courier,monospace" font-size="11.00">RuntimeException</text>
</g>
<!-- \\WebinoImageThumb\\Exception\\ExceptionInterface -->
<g id="node10" class="node"><title>\\WebinoImageThumb\\Exception\\ExceptionInterface</title>
<polygon fill="none" stroke="black" points="349,-676 211,-676 211,-640 349,-640 349,-676"/>
<text text-anchor="middle" x="280" y="-655.1" font-family="Courier,monospace" font-size="11.00">ExceptionInterface</text>
</g>
<!-- \\WebinoImageThumb\\Exception\\RuntimeException&#45;&gt;\\WebinoImageThumb\\Exception\\ExceptionInterface -->
<g id="edge16" class="edge"><title>\\WebinoImageThumb\\Exception\\RuntimeException&#45;&gt;\\WebinoImageThumb\\Exception\\ExceptionInterface</title>
<path fill="none" stroke="black" stroke-dasharray="1,5" d="M659.142,-658C580.356,-658 445.263,-658 359.41,-658"/>
<polygon fill="none" stroke="black" points="359.192,-654.5 349.192,-658 359.191,-661.5 359.192,-654.5"/>
</g>
<!-- \\RuntimeException -->
<g id="node21" class="node"><title>\\RuntimeException</title>
<ellipse fill="none" stroke="black" cx="280" cy="-126" rx="103.238" ry="18.3848"/>
<text text-anchor="middle" x="280" y="-122.4" font-family="Times Roman,serif" font-size="14.00" fill="gray">\RuntimeException</text>
</g>
<!-- \\WebinoImageThumb\\Exception\\RuntimeException&#45;&gt;\\RuntimeException -->
<g id="edge14" class="edge"><title>\\WebinoImageThumb\\Exception\\RuntimeException&#45;&gt;\\RuntimeException</title>
<path fill="none" stroke="black" d="M685.205,-639.974C665.742,-629.376 642.181,-614.775 624,-598 468.201,-454.254 337.453,-230.51 294.742,-153.29"/>
<polygon fill="none" stroke="black" points="297.632,-151.283 289.75,-144.204 291.497,-154.654 297.632,-151.283"/>
</g>
<!-- \\WebinoImageThumb\\Service\\ImageThumb -->
<g id="node12" class="node"><title>\\WebinoImageThumb\\Service\\ImageThumb</title>
<polygon fill="none" stroke="black" points="764,-366 680,-366 680,-330 764,-330 764,-366"/>
<text text-anchor="middle" x="722" y="-345.1" font-family="Courier,monospace" font-size="11.00">ImageThumb</text>
</g>
<!-- \\WebinoImageThumb\\Service\\ImageThumbAwareInterface -->
<g id="node13" class="node"><title>\\WebinoImageThumb\\Service\\ImageThumbAwareInterface</title>
<polygon fill="none" stroke="black" points="811,-312 633,-312 633,-276 811,-276 811,-312"/>
<text text-anchor="middle" x="722" y="-291.1" font-family="Courier,monospace" font-size="11.00">ImageThumbAwareInterface</text>
</g>
<!-- \\WebinoImageThumb\\Service\\ImageThumbAwareTrait -->
<g id="node14" class="node"><title>\\WebinoImageThumb\\Service\\ImageThumbAwareTrait</title>
<polygon fill="none" stroke="black" points="798,-258 646,-258 646,-222 798,-222 798,-258"/>
<text text-anchor="middle" x="722" y="-237.1" font-family="Courier,monospace" font-size="11.00">ImageThumbAwareTrait</text>
</g>
<!-- \\WebinoImageThumb\\Module -->
<g id="node15" class="node"><title>\\WebinoImageThumb\\Module</title>
<polygon fill="none" stroke="black" points="750,-204 694,-204 694,-168 750,-168 750,-204"/>
<text text-anchor="middle" x="722" y="-183.1" font-family="Courier,monospace" font-size="11.00">Module</text>
</g>
<!-- \\Zend\\ModuleManager\\Feature\\ConfigProviderInterface -->
<g id="node24" class="node"><title>\\Zend\\ModuleManager\\Feature\\ConfigProviderInterface</title>
<ellipse fill="none" stroke="black" cx="280" cy="-18" rx="278.808" ry="18.3848"/>
<text text-anchor="middle" x="280" y="-14.4" font-family="Times Roman,serif" font-size="14.00" fill="gray">\Zend\ModuleManager\Feature\ConfigProviderInterface</text>
</g>
<!-- \\WebinoImageThumb\\Module&#45;&gt;\\Zend\\ModuleManager\\Feature\\ConfigProviderInterface -->
<g id="edge18" class="edge"><title>\\WebinoImageThumb\\Module&#45;&gt;\\Zend\\ModuleManager\\Feature\\ConfigProviderInterface</title>
<path fill="none" stroke="black" stroke-dasharray="1,5" d="M707.822,-167.803C682.185,-136.427 624.737,-72.8423 560,-45 547.06,-39.4346 533.481,-34.7806 519.572,-30.9032"/>
<polygon fill="none" stroke="black" points="520.456,-27.5168 509.893,-28.3413 518.665,-34.2838 520.456,-27.5168"/>
</g>
</g>
</svg>
