<?xml version="1.0" encoding="UTF-8" standalone="no"?>
<!DOCTYPE svg PUBLIC "-//W3C//DTD SVG 1.1//EN"
 "http://www.w3.org/Graphics/SVG/1.1/DTD/svg11.dtd">
<!-- Generated by graphviz version 2.26.3 (20100126.1600)
 -->
<!-- Title: G Pages: 1 -->
<svg width="852pt" height="782pt"
 viewBox="0.00 0.00 852.00 782.00" xmlns="http://www.w3.org/2000/svg" xmlns:xlink="http://www.w3.org/1999/xlink">
<g id="graph1" class="graph" transform="scale(1 1) rotate(0) translate(4 778)">
<title>G</title>
<polygon fill="white" stroke="white" points="-4,5 -4,-778 849,-778 849,5 -4,5"/>
<g id="graph2" class="cluster"><title>cluster_Global</title>
<polyline fill="none" stroke="gray" points="199,-152 824,-152 "/>
<path fill="none" stroke="gray" d="M824,-152C830,-152 836,-158 836,-164"/>
<polyline fill="none" stroke="gray" points="836,-164 836,-754 "/>
<path fill="none" stroke="gray" d="M836,-754C836,-760 830,-766 824,-766"/>
<polyline fill="none" stroke="gray" points="824,-766 199,-766 "/>
<path fill="none" stroke="gray" d="M199,-766C193,-766 187,-760 187,-754"/>
<polyline fill="none" stroke="gray" points="187,-754 187,-164 "/>
<path fill="none" stroke="gray" d="M187,-164C187,-158 193,-152 199,-152"/>
<text text-anchor="middle" x="511.5" y="-752.1" font-family="Times Roman,serif" font-size="11.00" fill="gray">Global</text>
</g>
<g id="graph3" class="cluster"><title>cluster_\WebinoImageThumb</title>
<polyline fill="none" stroke="gray" points="207,-160 816,-160 "/>
<path fill="none" stroke="gray" d="M816,-160C822,-160 828,-166 828,-172"/>
<polyline fill="none" stroke="gray" points="828,-172 828,-724 "/>
<path fill="none" stroke="gray" d="M828,-724C828,-730 822,-736 816,-736"/>
<polyline fill="none" stroke="gray" points="816,-736 207,-736 "/>
<path fill="none" stroke="gray" d="M207,-736C201,-736 195,-730 195,-724"/>
<polyline fill="none" stroke="gray" points="195,-724 195,-172 "/>
<path fill="none" stroke="gray" d="M195,-172C195,-166 201,-160 207,-160"/>
<text text-anchor="middle" x="511.5" y="-722.1" font-family="Times Roman,serif" font-size="11.00" fill="gray">WebinoImageThumb</text>
</g>
<g id="graph4" class="cluster"><title>cluster_\WebinoImageThumb\PhpThumb</title>
<polyline fill="none" stroke="gray" points="652,-486 792,-486 "/>
<path fill="none" stroke="gray" d="M792,-486C798,-486 804,-492 804,-498"/>
<polyline fill="none" stroke="gray" points="804,-498 804,-694 "/>
<path fill="none" stroke="gray" d="M804,-694C804,-700 798,-706 792,-706"/>
<polyline fill="none" stroke="gray" points="792,-706 652,-706 "/>
<path fill="none" stroke="gray" d="M652,-706C646,-706 640,-700 640,-694"/>
<polyline fill="none" stroke="gray" points="640,-694 640,-498 "/>
<path fill="none" stroke="gray" d="M640,-498C640,-492 646,-486 652,-486"/>
<text text-anchor="middle" x="722" y="-692.1" font-family="Times Roman,serif" font-size="11.00" fill="gray">PhpThumb</text>
</g>
<g id="graph5" class="cluster"><title>cluster_\WebinoImageThumb\PhpThumb\Plugin</title>
<polyline fill="none" stroke="gray" points="660,-494 784,-494 "/>
<path fill="none" stroke="gray" d="M784,-494C790,-494 796,-500 796,-506"/>
<polyline fill="none" stroke="gray" points="796,-506 796,-664 "/>
<path fill="none" stroke="gray" d="M796,-664C796,-670 790,-676 784,-676"/>
<polyline fill="none" stroke="gray" points="784,-676 660,-676 "/>
<path fill="none" stroke="gray" d="M660,-676C654,-676 648,-670 648,-664"/>
<polyline fill="none" stroke="gray" points="648,-664 648,-506 "/>
<path fill="none" stroke="gray" d="M648,-506C648,-500 654,-494 660,-494"/>
<text text-anchor="middle" x="722" y="-662.1" font-family="Times Roman,serif" font-size="11.00" fill="gray">Plugin</text>
</g>
<g id="graph6" class="cluster"><title>cluster_\WebinoImageThumb\Service</title>
<polyline fill="none" stroke="gray" points="636,-296 808,-296 "/>
<path fill="none" stroke="gray" d="M808,-296C814,-296 820,-302 820,-308"/>
<polyline fill="none" stroke="gray" points="820,-308 820,-466 "/>
<path fill="none" stroke="gray" d="M820,-466C820,-472 814,-478 808,-478"/>
<polyline fill="none" stroke="gray" points="808,-478 636,-478 "/>
<path fill="none" stroke="gray" d="M636,-478C630,-478 624,-472 624,-466"/>
<polyline fill="none" stroke="gray" points="624,-466 624,-308 "/>
<path fill="none" stroke="gray" d="M624,-308C624,-302 630,-296 636,-296"/>
<text text-anchor="middle" x="722" y="-464.1" font-family="Times Roman,serif" font-size="11.00" fill="gray">Service</text>
</g>
<g id="graph7" class="cluster"><title>cluster_\WebinoImageThumb\Exception</title>
<polyline fill="none" stroke="gray" points="215,-214 781,-214 "/>
<path fill="none" stroke="gray" d="M781,-214C787,-214 793,-220 793,-226"/>
<polyline fill="none" stroke="gray" points="793,-226 793,-276 "/>
<path fill="none" stroke="gray" d="M793,-276C793,-282 787,-288 781,-288"/>
<polyline fill="none" stroke="gray" points="781,-288 215,-288 "/>
<path fill="none" stroke="gray" d="M215,-288C209,-288 203,-282 203,-276"/>
<polyline fill="none" stroke="gray" points="203,-276 203,-226 "/>
<path fill="none" stroke="gray" d="M203,-226C203,-220 209,-214 215,-214"/>
<text text-anchor="middle" x="498" y="-274.1" font-family="Times Roman,serif" font-size="11.00" fill="gray">Exception</text>
</g>
<!-- \\WebinoImageThumb\\PhpThumb\\Plugin\\Sharpen -->
<g id="node5" class="node"><title>\\WebinoImageThumb\\PhpThumb\\Plugin\\Sharpen</title>
<polygon fill="none" stroke="black" points="754,-592 690,-592 690,-556 754,-556 754,-592"/>
<text text-anchor="middle" x="722" y="-571.1" font-family="Courier,monospace" font-size="11.00">Sharpen</text>
</g>
<!-- \\PHPThumb\\PluginInterface -->
<g id="node17" class="node"><title>\\PHPThumb\\PluginInterface</title>
<ellipse fill="none" stroke="black" cx="280" cy="-126" rx="145.163" ry="18.3848"/>
<text text-anchor="middle" x="280" y="-122.4" font-family="Times Roman,serif" font-size="14.00" fill="gray">\PHPThumb\PluginInterface</text>
</g>
<!-- \\WebinoImageThumb\\PhpThumb\\Plugin\\Sharpen&#45;&gt;\\PHPThumb\\PluginInterface -->
<g id="edge8" class="edge"><title>\\WebinoImageThumb\\PhpThumb\\Plugin\\Sharpen&#45;&gt;\\PHPThumb\\PluginInterface</title>
<path fill="none" stroke="black" stroke-dasharray="1,5" d="M689.72,-573.537C668.091,-571.445 640.628,-565.035 624,-547 520.661,-434.913 662.065,-323.248 560,-210 523.452,-169.447 468.182,-148.143 416.377,-137.072"/>
<polygon fill="none" stroke="black" points="416.905,-133.608 406.409,-135.056 415.517,-140.469 416.905,-133.608"/>
</g>
<!-- \\WebinoImageThumb\\PhpThumb\\Plugin\\WhitespaceCropper -->
<g id="node6" class="node"><title>\\WebinoImageThumb\\PhpThumb\\Plugin\\WhitespaceCropper</title>
<polygon fill="none" stroke="black" points="787,-538 657,-538 657,-502 787,-502 787,-538"/>
<text text-anchor="middle" x="722" y="-517.1" font-family="Courier,monospace" font-size="11.00">WhitespaceCropper</text>
</g>
<!-- \\WebinoImageThumb\\PhpThumb\\Plugin\\WhitespaceCropper&#45;&gt;\\PHPThumb\\PluginInterface -->
<g id="edge10" class="edge"><title>\\WebinoImageThumb\\PhpThumb\\Plugin\\WhitespaceCropper&#45;&gt;\\PHPThumb\\PluginInterface</title>
<path fill="none" stroke="black" stroke-dasharray="1,5" d="M656.261,-504.689C644.149,-499.255 632.624,-491.912 624,-482 542.486,-388.305 645.126,-300.426 560,-210 522.172,-169.816 465.959,-148.614 413.806,-137.518"/>
<polygon fill="none" stroke="black" points="414.274,-134.042 403.779,-135.497 412.89,-140.904 414.274,-134.042"/>
</g>
<!-- \\WebinoImageThumb\\PhpThumb\\Plugin\\Watermark -->
<g id="node7" class="node"><title>\\WebinoImageThumb\\PhpThumb\\Plugin\\Watermark</title>
<polygon fill="none" stroke="black" points="760,-646 684,-646 684,-610 760,-610 760,-646"/>
<text text-anchor="middle" x="722" y="-625.1" font-family="Courier,monospace" font-size="11.00">Watermark</text>
</g>
<!-- \\WebinoImageThumb\\PhpThumb\\Plugin\\Watermark&#45;&gt;\\PHPThumb\\PluginInterface -->
<g id="edge12" class="edge"><title>\\WebinoImageThumb\\PhpThumb\\Plugin\\Watermark&#45;&gt;\\PHPThumb\\PluginInterface</title>
<path fill="none" stroke="black" stroke-dasharray="1,5" d="M683.35,-626.978C662.836,-624.338 638.863,-617.539 624,-601 506.295,-470.029 676.216,-342.294 560,-210 524.128,-169.165 469.265,-147.795 417.579,-136.751"/>
<polygon fill="none" stroke="black" points="418.127,-133.291 407.632,-134.742 416.741,-140.152 418.127,-133.291"/>
</g>
<!-- \\WebinoImageThumb\\Service\\ImageThumb -->
<g id="node9" class="node"><title>\\WebinoImageThumb\\Service\\ImageThumb</title>
<polygon fill="none" stroke="black" points="764,-448 680,-448 680,-412 764,-412 764,-448"/>
<text text-anchor="middle" x="722" y="-427.1" font-family="Courier,monospace" font-size="11.00">ImageThumb</text>
</g>
<!-- \\WebinoImageThumb\\Service\\ImageThumbAwareInterface -->
<g id="node10" class="node"><title>\\WebinoImageThumb\\Service\\ImageThumbAwareInterface</title>
<polygon fill="none" stroke="black" points="811,-394 633,-394 633,-358 811,-358 811,-394"/>
<text text-anchor="middle" x="722" y="-373.1" font-family="Courier,monospace" font-size="11.00">ImageThumbAwareInterface</text>
</g>
<!-- \\WebinoImageThumb\\Service\\ImageThumbAwareTrait -->
<g id="node11" class="node"><title>\\WebinoImageThumb\\Service\\ImageThumbAwareTrait</title>
<polygon fill="none" stroke="black" points="798,-340 646,-340 646,-304 798,-304 798,-340"/>
<text text-anchor="middle" x="722" y="-319.1" font-family="Courier,monospace" font-size="11.00">ImageThumbAwareTrait</text>
</g>
<!-- \\WebinoImageThumb\\Exception\\RuntimeException -->
<g id="node13" class="node"><title>\\WebinoImageThumb\\Exception\\RuntimeException</title>
<polygon fill="none" stroke="black" points="784,-258 660,-258 660,-222 784,-222 784,-258"/>
<text text-anchor="middle" x="722" y="-237.1" font-family="Courier,monospace" font-size="11.00">RuntimeException</text>
</g>
<!-- \\WebinoImageThumb\\Exception\\ExceptionInterface -->
<g id="node14" class="node"><title>\\WebinoImageThumb\\Exception\\ExceptionInterface</title>
<polygon fill="none" stroke="black" points="349,-258 211,-258 211,-222 349,-222 349,-258"/>
<text text-anchor="middle" x="280" y="-237.1" font-family="Courier,monospace" font-size="11.00">ExceptionInterface</text>
</g>
<!-- \\WebinoImageThumb\\Exception\\RuntimeException&#45;&gt;\\WebinoImageThumb\\Exception\\ExceptionInterface -->
<g id="edge18" class="edge"><title>\\WebinoImageThumb\\Exception\\RuntimeException&#45;&gt;\\WebinoImageThumb\\Exception\\ExceptionInterface</title>
<path fill="none" stroke="black" stroke-dasharray="1,5" d="M659.142,-240C580.356,-240 445.263,-240 359.41,-240"/>
<polygon fill="none" stroke="black" points="359.192,-236.5 349.192,-240 359.191,-243.5 359.192,-236.5"/>
</g>
<!-- \\RuntimeException -->
<g id="node23" class="node"><title>\\RuntimeException</title>
<ellipse fill="none" stroke="black" cx="280" cy="-72" rx="103.238" ry="18.3848"/>
<text text-anchor="middle" x="280" y="-68.4" font-family="Times Roman,serif" font-size="14.00" fill="gray">\RuntimeException</text>
</g>
<!-- \\WebinoImageThumb\\Exception\\RuntimeException&#45;&gt;\\RuntimeException -->
<g id="edge16" class="edge"><title>\\WebinoImageThumb\\Exception\\RuntimeException&#45;&gt;\\RuntimeException</title>
<path fill="none" stroke="black" d="M659.418,-234.279C646.805,-230.929 634.279,-225.8 624,-218 576.16,-181.7 610.009,-132.248 560,-99 504.544,-62.1299 428.722,-56.8777 369.966,-60.0212"/>
<polygon fill="none" stroke="black" points="369.71,-56.5303 359.947,-60.6466 370.146,-63.5167 369.71,-56.5303"/>
</g>
<!-- \\WebinoImageThumb\\Module -->
<g id="node15" class="node"><title>\\WebinoImageThumb\\Module</title>
<polygon fill="none" stroke="black" points="750,-204 694,-204 694,-168 750,-168 750,-204"/>
<text text-anchor="middle" x="722" y="-183.1" font-family="Courier,monospace" font-size="11.00">Module</text>
</g>
<!-- \\Zend\\ModuleManager\\Feature\\ConfigProviderInterface -->
<g id="node21" class="node"><title>\\Zend\\ModuleManager\\Feature\\ConfigProviderInterface</title>
<ellipse fill="none" stroke="black" cx="280" cy="-18" rx="278.808" ry="18.3848"/>
<text text-anchor="middle" x="280" y="-14.4" font-family="Times Roman,serif" font-size="14.00" fill="gray">\Zend\ModuleManager\Feature\ConfigProviderInterface</text>
</g>
<!-- \\WebinoImageThumb\\Module&#45;&gt;\\Zend\\ModuleManager\\Feature\\ConfigProviderInterface -->
<g id="edge14" class="edge"><title>\\WebinoImageThumb\\Module&#45;&gt;\\Zend\\ModuleManager\\Feature\\ConfigProviderInterface</title>
<path fill="none" stroke="black" stroke-dasharray="1,5" d="M707.822,-167.803C682.185,-136.427 624.737,-72.8423 560,-45 547.06,-39.4346 533.481,-34.7806 519.572,-30.9032"/>
<polygon fill="none" stroke="black" points="520.456,-27.5168 509.893,-28.3413 518.665,-34.2838 520.456,-27.5168"/>
</g>
</g>
</svg>
